<svg width="902" height="840" viewBox="0 0 902 840" fill="none" xmlns="http://www.w3.org/2000/svg">
<path d="M1253.41 810.41C1209.22 829.222 1153.98 825.34 1108.89 799.362C1080.22 782.939 1059.32 766.516 1040.81 751.884C984.372 707.094 961.081 688.88 832.384 785.925C762.81 838.478 675.619 854.006 605.15 826.833C543.041 802.945 500.938 748.898 486.904 675.144C475.259 614.23 455.253 576.905 425.99 561.378C383.887 539.281 326.257 564.065 270.419 588.55C232.795 604.973 193.978 621.695 159.638 624.382C82.5997 630.354 27.0601 616.917 -10.5635 583.773C-81.0331 521.067 -85.8107 393.266 -92.6785 216.793C-93.2757 203.356 -93.8729 189.322 -94.1715 175.288C-100.144 28.6752 -73.8667 -90.7648 -14.1467 -189.9C41.6915 -282.466 127.688 -358.012 248.92 -421.315C342.083 -469.987 424.795 -495.965 494.668 -498.652C575.887 -501.638 640.086 -472.973 685.473 -413.253C750.269 -327.555 742.506 -249.919 736.832 -193.185C733.548 -159.144 730.86 -132.27 745.193 -117.042C758.033 -103.605 784.608 -98.2299 828.502 -100.32C897.18 -103.605 996.913 -83.0013 1052.15 -13.4274C1095.75 41.515 1104.41 115.866 1078.43 207.537C1044.09 327.574 1113.67 368.781 1193.99 416.557C1269.53 461.645 1355.23 512.706 1348.96 642.597C1344.18 741.433 1301.19 785.328 1265.95 804.737C1261.47 806.827 1257.59 808.618 1253.41 810.41Z" fill="url(#paint0_linear)"/>
<path d="M1224.74 737.85C1178.46 750.69 1124.12 739.343 1082.91 707.99C1056.63 687.984 1038.12 668.874 1021.7 651.854C971.532 600.196 950.928 578.697 810.586 658.124C734.742 701.123 646.356 705.004 579.769 668.874C521.243 636.924 486.605 577.801 482.425 502.852C478.842 440.743 464.21 401.328 437.038 381.919C398.22 354.448 337.604 371.468 279.078 388.19C239.663 399.536 198.755 410.883 164.416 409.092C87.3772 404.911 33.9279 384.308 1.08186 346.386C-60.4297 275.02 -48.4857 147.817 -32.0627 -28.0587C-30.8683 -41.4957 -29.3753 -55.5298 -28.1809 -69.5641C-14.7439 -215.579 26.7615 -330.54 99.3213 -421.016C166.805 -505.221 262.058 -569.122 390.456 -616.002C489.293 -652.133 574.692 -667.063 643.968 -660.493C724.888 -652.73 784.907 -616.002 821.933 -550.609C874.785 -457.147 856.869 -381.303 843.731 -325.763C835.967 -292.618 829.697 -266.341 842.238 -249.023C853.286 -234.093 878.667 -225.135 922.86 -221.552C991.239 -215.878 1087.39 -182.136 1133.07 -105.993C1168.91 -45.6761 1168.01 28.9739 1130.09 116.464C1079.92 231.126 1143.53 281.291 1216.98 339.219C1285.96 393.863 1364.19 455.673 1340.9 583.773C1323.28 681.116 1274.91 719.038 1237.29 733.371C1233.11 735.163 1228.93 736.656 1224.74 737.85Z" fill="url(#paint1_linear)"/>
<defs>
<linearGradient id="paint0_linear" x1="626.575" y1="940.432" x2="504.5" y2="345.5" gradientUnits="userSpaceOnUse">
<stop stop-color="#4C47C9"/>
<stop offset="1" stop-color="#3832C5"/>
</linearGradient>
<linearGradient id="paint1_linear" x1="792.5" y1="291.5" x2="788" y2="41" gradientUnits="userSpaceOnUse">
<stop stop-color="#312CAF"/>
<stop offset="1" stop-color="#242086"/>
</linearGradient>
</defs>
</svg>
